<svg viewBox="0 0 93.89 24.89" version="1.1" xmlns="http://www.w3.org/2000/svg" xmlns:xlink="http://www.w3.org/1999/xlink"> <path d="M0,12.38A12.44,12.44,0,1,0,12.51,0h-.07A12.44,12.44,0,0,0,0,12.38" style="fill: #ec1a3b"></path> <path d="M20.6,10.73h0L13.21,3.37A1,1,0,0,0,12.44,3h0a1,1,0,0,0-.77.33L4.28,10.73h0a1.6,1.6,0,0,0,1.13,2.72h1s0,5.59,0,5.6a1,1,0,0,0,1,1h10a1,1,0,0,0,1-1s0-5.6,0-5.6h1a1.6,1.6,0,0,0,1.13-2.72m-4.1.8v6.62H8.38V11.53H6.25l6.2-6.17,6.2,6.17Z" style="fill: #fff"></path> <g> <path d="M35.86,17.8H34.08c-.16,0-.22-.15-.29-.29l-2.11-3.91h-.2c-.38,0-1,0-1.3-.06v4a.28.28,0,0,1-.28.29H28.42a.29.29,0,0,1-.29-.29V7.42c0-.29.18-.4.47-.44a19.8,19.8,0,0,1,2.87-.19c2.26,0,4.22.81,4.22,3.31v.13a3,3,0,0,1-2,3L36,17.5a.2.2,0,0,1,0,.12A.16.16,0,0,1,35.86,17.8Zm-2.2-7.69c0-1.1-.73-1.57-2.2-1.57-.31,0-1,0-1.3.06v3.3l1.3,0c1.51,0,2.2-.41,2.2-1.7Z" style="fill: #333f48"></path> <path d="M43.06,17.71a13.84,13.84,0,0,1-2.78.2c-1.9,0-3.39-.51-3.39-3V9.79c0-2.49,1.48-3,3.39-3A13.78,13.78,0,0,1,43.06,7c.22,0,.29.1.29.31v.94a.29.29,0,0,1-.29.29h-3c-.85,0-1.16.29-1.16,1.26v1.58h4a.29.29,0,0,1,.29.29v1.06a.29.29,0,0,1-.29.29h-4v1.89c0,1,.31,1.26,1.16,1.26h3a.29.29,0,0,1,.29.29v.94C43.35,17.61,43.28,17.68,43.06,17.71Z" style="fill: #333f48"></path> <path d="M52.72,17.8H51.17a.31.31,0,0,1-.28-.25l-.67-2.78H46.84l-.67,2.78a.31.31,0,0,1-.28.25H44.33a.25.25,0,0,1-.26-.25.63.63,0,0,0,0-.07l2.4-9.19a2.13,2.13,0,0,1,4.07,0L53,17.47a.64.64,0,0,0,0,.07A.25.25,0,0,1,52.72,17.8Zm-4-9.06c0-.18-.09-.23-.23-.23s-.19.06-.23.23l-1.06,4.35h2.58Z" style="fill: #333f48"></path> <path d="M69.11,11.07a4.15,4.15,0,0,0-2,.53v5.89a.31.31,0,0,1-.29.31H65.45a.31.31,0,0,1-.29-.31V9.82a.29.29,0,0,1,.29-.29h1.27a.29.29,0,0,1,.29.29v.31a3.41,3.41,0,0,1,2.1-.7.3.3,0,0,1,.29.29v1.06A.29.29,0,0,1,69.11,11.07Z" style="fill: #333f48"></path> <path d="M73.27,17.91a3.32,3.32,0,0,1-3.5-3.65V13.08a3.51,3.51,0,1,1,7,0v1.19A3.32,3.32,0,0,1,73.27,17.91Zm1.57-4.84c0-1.2-.54-2-1.57-2s-1.57.78-1.57,2v1.19c0,1.2.54,2,1.57,2s1.57-.78,1.57-2Z" style="fill: #333f48"></path> <path d="M84.22,17.8H82.87a.29.29,0,0,1-.29-.29v-.34a3.78,3.78,0,0,1-2.3.73,2.5,2.5,0,0,1-1.8-.62,3.7,3.7,0,0,1-.73-2.67V9.84A.31.31,0,0,1,78,9.53h1.35a.31.31,0,0,1,.29.31v4.78c0,.73.06,1.16.34,1.41a1.27,1.27,0,0,0,.91.26,4.14,4.14,0,0,0,1.66-.59V9.84a.31.31,0,0,1,.29-.31h1.35a.31.31,0,0,1,.29.31V17.5A.29.29,0,0,1,84.22,17.8Z" style="fill: #333f48"></path> <path d="M89,17.91a11.1,11.1,0,0,1-1.41-.1v2.59a.29.29,0,0,1-.29.29H86a.29.29,0,0,1-.29-.29V10.2c0-.22.06-.31.4-.4A12.52,12.52,0,0,1,89,9.43c2.36,0,3.5,1.39,3.5,3.68v1.13C92.53,16.52,91.38,17.91,89,17.91Zm1.57-4.81c0-1.2-.31-2.1-1.57-2.1a8.58,8.58,0,0,0-1.41.1v5.12a12.25,12.25,0,0,0,1.41.1c1.26,0,1.57-.89,1.57-2.1Z" style="fill: #333f48"></path> <path d="M63.45,17.67a16.08,16.08,0,0,1-3.19.25c-1.58,0-3.93-1-3.93-4.5V11.31c0-3.47,2.23-4.51,4-4.51a19.27,19.27,0,0,1,3.15.26c.19,0,.28.12.28.31v1c0,.21-.06.31-.29.31h0c-.67-.06-1.68-.12-3.09-.12-1,0-1.92.69-1.92,2.77v2.11c0,2.08,1,2.75,1.87,2.75.54,0,1,0,1.45,0V12.39A.28.28,0,0,1,62,12.1h1.45a.29.29,0,0,1,.29.29v4.92A.32.32,0,0,1,63.45,17.67Z" style="fill: #333f48"></path> <path d="M63.45,17.67a16.08,16.08,0,0,1-3.19.25c-1.58,0-3.93-1-3.93-4.5V11.31c0-3.47,2.23-4.51,4-4.51a19.27,19.27,0,0,1,3.15.26c.19,0,.28.12.28.31v1c0,.21-.06.31-.29.31h0c-.67-.06-1.68-.12-3.09-.12-1,0-1.92.69-1.92,2.77v2.11c0,2.08,1,2.75,1.87,2.75.54,0,1,0,1.45,0V12.39A.28.28,0,0,1,62,12.1h1.45a.29.29,0,0,1,.29.29v4.92A.32.32,0,0,1,63.45,17.67Z" style="fill: #333f48"></path> <path d="M93,9.06a.93.93,0,1,1,.91-.93A.91.91,0,0,1,93,9.06Zm0-1.7a.73.73,0,0,0-.75.77.75.75,0,1,0,1.49,0A.72.72,0,0,0,93,7.36Zm.2,1.24L93,8.24h-.19V8.6h-.17v-1H93a.31.31,0,0,1,.34.3.29.29,0,0,1-.18.28l.18.39ZM93,7.79h-.19v.3H93c.1,0,.17,0,.17-.15A.15.15,0,0,0,93,7.79Z" style="fill: #333f48"></path> </g> </svg>