<svg class="logo_svg" viewBox="0 0 123 20" xmlns="http://www.w3.org/2000/svg"><title>Reece Tech</title><path d="M81.286 5.237V6.64h-2.778v9.205c0 .547.075.975.225 1.283.15.31.525.48 1.124.516.476 0 .953-.026 1.43-.08v1.403c-.248 0-.495.01-.742.026-.247.017-.494.027-.74.027-1.11 0-1.888-.216-2.328-.648-.44-.433-.653-1.23-.635-2.395V6.64h-2.38V5.237h2.38v-4.1h1.666v4.1h2.778zM93.44 9.285c-.202-.582-.488-1.098-.86-1.548-.37-.45-.82-.81-1.348-1.084-.53-.274-1.13-.41-1.8-.41-.687 0-1.295.136-1.824.41-.53.274-.98.635-1.35 1.084-.37.45-.665.97-.885 1.56-.22.592-.366 1.196-.437 1.813h8.836c-.018-.635-.13-1.243-.33-1.825m-8.254 5.093c.167.643.436 1.22.806 1.732.37.512.838.935 1.402 1.27.565.334 1.244.502 2.037.502 1.217 0 2.17-.317 2.857-.952.688-.635 1.164-1.482 1.43-2.54h1.665c-.353 1.553-1 2.75-1.944 3.598-.94.847-2.28 1.27-4 1.27-1.07 0-2-.19-2.79-.57-.78-.378-1.42-.898-1.92-1.56-.49-.66-.86-1.43-1.09-2.3-.24-.874-.35-1.795-.35-2.766 0-.9.12-1.78.36-2.645.24-.864.61-1.635 1.1-2.315.5-.68 1.14-1.225 1.92-1.64.79-.414 1.72-.62 2.79-.62 1.09 0 2.03.22 2.81.66.78.44 1.41 1.018 1.89 1.733.49.714.84 1.534 1.05 2.46.21.926.3 1.865.27 2.817H84.94c0 .6.082 1.222.25 1.866m21.123-7.262c-.62-.582-1.48-.873-2.594-.873-.8 0-1.49.167-2.09.502-.6.335-1.1.776-1.5 1.323-.4.547-.7 1.17-.9 1.865-.21.697-.31 1.407-.31 2.13 0 .723.1 1.432.3 2.128.2.7.5 1.32.9 1.87s.89.99 1.49 1.32c.6.34 1.3.51 2.09.51.51 0 1-.09 1.45-.29.46-.19.86-.46 1.212-.81.35-.34.64-.75.87-1.23.23-.47.37-.99.423-1.56h1.67c-.23 1.66-.836 2.95-1.824 3.88-.987.93-2.257 1.39-3.81 1.39-1.04 0-1.96-.19-2.762-.57-.8-.37-1.48-.89-2.02-1.54-.55-.65-.967-1.41-1.25-2.28-.28-.87-.42-1.8-.42-2.79 0-.98.14-1.92.423-2.79.28-.87.7-1.63 1.248-2.29.546-.65 1.22-1.17 2.024-1.56.8-.38 1.72-.58 2.76-.58 1.463 0 2.702.39 3.72 1.17 1.01.78 1.613 1.95 1.81 3.52h-1.67c-.23-1.02-.655-1.82-1.27-2.41M113.58 0v7.593h.054c.317-.83.882-1.495 1.693-1.997.81-.503 1.7-.754 2.67-.754.95 0 1.75.13 2.39.37.64.25 1.16.6 1.545 1.05.39.45.66 1 .82 1.66.16.66.24 1.39.24 2.2v8.78h-1.667v-8.52c0-.58-.053-1.12-.16-1.62-.105-.5-.29-.94-.555-1.31-.265-.37-.62-.66-1.07-.87-.45-.21-1.01-.32-1.68-.32-.67 0-1.267.12-1.788.36-.52.24-.96.57-1.322.98-.36.42-.643.91-.845 1.48-.202.58-.312 1.2-.33 1.87v7.96h-1.67V0h1.67zM4.865 7.595h.05C5.85 5.91 7.455 5.162 9.35 5.162h.935v4.675c-.668-.374-1.31-.453-2.057-.453-2.7 0-3.366 1.79-3.366 4.14v5.53H0V5.35h4.862v2.244zm17.19 2.618c-.24-1.31-1.44-2.163-2.75-2.163-1.42 0-2.59.74-2.888 2.16h5.635zm4.51 2.804h-10.23c0 1.977 1.043 3.047 3.046 3.047 1.05 0 1.79-.35 2.33-1.256h4.68c-.77 3.233-3.84 4.7-6.97 4.7-4.54 0-7.93-2.563-7.93-7.29 0-4.57 3.13-7.322 7.59-7.322 4.76 0 7.51 2.94 7.51 7.614v.5zm12.208-2.804c-.24-1.31-1.44-2.163-2.75-2.163-1.414 0-2.59.74-2.883 2.16h5.63zm4.518 2.804H33.05c0 1.977 1.042 3.047 3.045 3.047 1.04 0 1.79-.35 2.32-1.256h4.68c-.78 3.233-3.85 4.7-6.98 4.7-4.54 0-7.936-2.563-7.936-7.29 0-4.57 3.12-7.322 7.58-7.322 4.75 0 7.5 2.94 7.5 7.614v.5zM65.63 8.05c1.31 0 2.52.854 2.76 2.163h-5.64c.29-1.416 1.47-2.164 2.88-2.164m.08 8.01c-2 0-3.044-1.07-3.044-3.05h10.19l.04-.51c0-4.675-2.75-7.614-7.51-7.614-4.46 0-7.587 2.753-7.587 7.32 0 4.73 3.39 7.293 7.93 7.293 3.12 0 6.2-1.47 6.97-4.7h-4.67c-.54.905-1.28 1.254-2.33 1.254M55.73 9.81c-.722-.535-1.577-.963-2.513-.963-1.87 0-3.34 1.443-3.34 3.34 0 1.98 1.416 3.368 3.42 3.368.856 0 1.79-.348 2.433-.936l1.236 3.43c-1.523 1.16-3.483 1.46-4.658 1.46-4.062 0-7.456-3.02-7.456-7.17 0-4.41 3.367-7.46 7.67-7.46 1.123 0 3.27.5 4.475 1.53l-1.27 3.39z" fill="#233975"></path></svg>